<!-- Generated by IcoMoon.io -->
<svg version="1.1" xmlns="http://www.w3.org/2000/svg" width="43" height="32" viewBox="0 0 43 32">
<title>envelope</title>
<path fill="#757575" d="M38.676 0.006h-34.675c-2.206 0-4.001 1.795-4.001 4.001v24.006c0 2.206 1.795 4.001 4.001 4.001h34.675c2.206 0 4.001-1.795 4.001-4.001v-24.006c0-2.206-1.795-4.001-4.001-4.001zM38.676 2.674c0.181 0 0.355 0.037 0.512 0.104l-17.85 15.47-17.85-15.47c0.151-0.065 0.327-0.104 0.512-0.104h34.675zM38.676 29.347h-34.675c-0.737 0-1.334-0.597-1.334-1.334v0-22.419l17.796 15.425c0.233 0.203 0.539 0.327 0.875 0.327s0.642-0.124 0.876-0.328l-0.002 0.001 17.796-15.425v22.419c0 0.737-0.597 1.334-1.334 1.334v0z"></path>
</svg>
