<!-- Generated by IcoMoon.io -->
<svg version="1.1" xmlns="http://www.w3.org/2000/svg" width="40" height="32" viewBox="0 0 40 32">
<title>logo5</title>
<path fill="#afb1b8" d="M3.056 26.748c0.157 0.194 0.24 0.438 0.236 0.688 0.001 0.016 0.001 0.035 0.001 0.053 0 0.324-0.141 0.615-0.365 0.815l-0.001 0.001c-0.304 0.231-0.681 0.343-1.062 0.317h-1.865v-4.362h1.827c0.031-0.002 0.067-0.003 0.103-0.003 0.342 0 0.657 0.11 0.914 0.297l-0.004-0.003c0.218 0.184 0.356 0.458 0.356 0.763 0 0.018-0.001 0.037-0.002 0.055l0-0.003c0.011 0.24-0.065 0.477-0.212 0.667-0.142 0.173-0.338 0.293-0.556 0.341 0.247 0.046 0.471 0.177 0.631 0.373zM0.868 26.089h0.78c0.178 0.014 0.354-0.038 0.497-0.145 0.104-0.095 0.169-0.232 0.169-0.383 0-0.015-0.001-0.030-0.002-0.045l0 0.002c0.001-0.011 0.001-0.024 0.001-0.037 0-0.153-0.064-0.291-0.167-0.389l-0-0c-0.124-0.093-0.281-0.15-0.45-0.15-0.021 0-0.043 0.001-0.064 0.003l0.003-0h-0.768v1.144zM2.222 27.762c0.114-0.1 0.186-0.246 0.186-0.408 0-0.012-0-0.024-0.001-0.036l0 0.002c0.001-0.010 0.001-0.021 0.001-0.032 0-0.166-0.073-0.314-0.189-0.416l-0.001-0.001c-0.132-0.099-0.299-0.159-0.48-0.159-0.018 0-0.036 0.001-0.054 0.002l0.002-0h-0.818v1.199h0.83c0.187 0.011 0.372-0.042 0.524-0.151zM6.792 28.623l-1.017-1.705h-0.382v1.705h-0.874v-4.362h1.655c0.034-0.003 0.074-0.004 0.114-0.004 0.396 0 0.76 0.142 1.042 0.377l-0.003-0.002c0.245 0.251 0.397 0.595 0.397 0.974 0 0.313-0.103 0.602-0.277 0.834l0.003-0.004c-0.204 0.235-0.483 0.392-0.789 0.443l1.083 1.743h-0.951zM5.393 26.324h0.715c0.497 0 0.745-0.22 0.745-0.661 0.001-0.011 0.001-0.024 0.001-0.037 0-0.176-0.070-0.336-0.184-0.454l0 0c-0.133-0.112-0.307-0.18-0.496-0.18-0.024 0-0.047 0.001-0.070 0.003l0.003-0h-0.724l0.009 1.328zM11.571 27.745h-1.742l-0.308 0.879h-0.917l1.6-4.314h0.991l1.594 4.313h-0.917l-0.301-0.878zM11.338 27.084l-0.637-1.841-0.637 1.841h1.274zM17.554 28.623h-0.869l-1.946-2.966v2.966h-0.866v-4.362h0.866l1.946 2.983v-2.983h0.868v4.362zM22.508 27.579c-0.182 0.33-0.45 0.594-0.775 0.765l-0.010 0.005c-0.378 0.191-0.797 0.286-1.22 0.274h-1.546v-4.362h1.546c0.020-0.001 0.043-0.001 0.067-0.001 0.42 0 0.817 0.1 1.168 0.277l-0.015-0.007c0.332 0.168 0.606 0.433 0.786 0.761 0.171 0.333 0.272 0.727 0.272 1.144s-0.1 0.811-0.278 1.158l0.007-0.014zM21.514 27.475c0.239-0.278 0.384-0.643 0.384-1.041s-0.145-0.763-0.386-1.043l0.002 0.002c-0.264-0.232-0.612-0.374-0.993-0.374-0.033 0-0.066 0.001-0.098 0.003l0.004-0h-0.603v2.824h0.603c0.028 0.002 0.061 0.003 0.094 0.003 0.381 0 0.729-0.142 0.994-0.375l-0.002 0.001zM12.114-0.002s11.204 4.247 10.967 10.393v10.395s-11.196-4.25-10.962-10.395l-0.005-10.393zM33.062 18.352c2.006-1.402 4.429-2.346 7.051-2.628l0.068-0.006v-3.254c-2.996 1.182-5.438 3.227-7.083 5.828l-0.035 0.060z"></path>
<path fill="#afb1b8" d="M31.791 19.332c1.75-3.488 4.694-6.16 8.285-7.515l0.105-0.035v-9.376s-15.957 6.050-15.619 14.801v14.8s0.711-0.27 1.83-0.778c0-0.473 0-0.95 0.050-1.43 0.35-4.207 2.343-7.89 5.328-10.449l0.021-0.017z"></path>
<path fill="#afb1b8" d="M30.274 24.83c0.084-1.026 0.27-2.042 0.558-3.031-2.039 2.401-3.304 5.516-3.379 8.923l-0 0.016c1.299-0.625 2.305-1.166 3.287-1.742l-0.218 0.118c-0.191-0.908-0.3-1.952-0.3-3.022 0-0.445 0.019-0.885 0.056-1.32l-0.004 0.057zM30.908 24.883c-0.031 0.359-0.049 0.777-0.049 1.2 0 0.948 0.090 1.875 0.261 2.773l-0.015-0.092c4.359-2.619 9.258-6.666 9.069-11.556v-0.426c-3.247 0.375-6.109 1.789-8.3 3.895l0.005-0.005c-0.501 1.235-0.847 2.665-0.968 4.159l-0.003 0.052z"></path>
</svg>
