<!-- Generated by IcoMoon.io -->
<svg version="1.1" xmlns="http://www.w3.org/2000/svg" width="31" height="32" viewBox="0 0 31 32">
<title>logo3</title>
<path fill="#afb1b8" d="M4.72 31.112c0.023 0.001 0.044 0.010 0.060 0.025v0l0.153 0.161c-0.119 0.13-0.266 0.234-0.431 0.304-0.194 0.077-0.401 0.115-0.61 0.109-0.009 0-0.020 0-0.031 0-0.196 0-0.383-0.038-0.554-0.106l0.010 0.004c-0.332-0.134-0.588-0.397-0.71-0.725l-0.003-0.009c-0.061-0.164-0.097-0.353-0.097-0.55 0-0.007 0-0.015 0-0.022v0.001c-0-0.007-0-0.015-0-0.023 0-0.198 0.038-0.387 0.108-0.56l-0.004 0.010c0.067-0.165 0.168-0.316 0.298-0.444 0.13-0.127 0.287-0.225 0.459-0.29 0.188-0.070 0.389-0.104 0.591-0.102 0.188-0.004 0.375 0.027 0.55 0.093 0.151 0.063 0.29 0.149 0.412 0.257l-0.129 0.171c-0.009 0.012-0.020 0.023-0.032 0.031l-0 0c-0.013 0.009-0.028 0.014-0.045 0.014-0.002 0-0.004-0-0.006-0l0 0c-0.021-0.001-0.040-0.008-0.056-0.019l0 0-0.068-0.045-0.096-0.059c-0.087-0.046-0.189-0.082-0.296-0.101l-0.006-0.001c-0.063-0.011-0.135-0.018-0.209-0.018-0.007 0-0.013 0-0.020 0h0.001c-0.005-0-0.010-0-0.016-0-0.147 0-0.288 0.028-0.417 0.079l0.008-0.003c-0.13 0.051-0.241 0.124-0.334 0.216l0-0c-0.095 0.099-0.169 0.216-0.216 0.342-0.054 0.145-0.081 0.299-0.079 0.453-0.002 0.156 0.025 0.313 0.079 0.46 0.046 0.126 0.119 0.242 0.212 0.341 0.088 0.093 0.197 0.165 0.318 0.212 0.125 0.049 0.259 0.074 0.395 0.073 0.078 0.001 0.156-0.004 0.234-0.015 0.127-0.015 0.247-0.057 0.354-0.122 0.054-0.034 0.104-0.071 0.151-0.113 0.019-0.017 0.044-0.029 0.072-0.030h0zM9.144 30.304c0.002 0.194-0.033 0.387-0.103 0.568-0.067 0.172-0.165 0.319-0.288 0.441l-0 0c-0.126 0.123-0.276 0.221-0.444 0.286l-0.009 0.003c-0.173 0.065-0.373 0.102-0.582 0.102s-0.409-0.037-0.594-0.106l0.012 0.004c-0.175-0.069-0.325-0.167-0.45-0.291l0 0c-0.123-0.123-0.222-0.271-0.288-0.436l-0.003-0.009c-0.066-0.169-0.103-0.364-0.103-0.568s0.038-0.4 0.107-0.579l-0.004 0.011c0.065-0.166 0.164-0.318 0.29-0.447 0.126-0.119 0.276-0.214 0.441-0.276l0.009-0.003c0.173-0.066 0.373-0.104 0.582-0.104s0.409 0.038 0.594 0.108l-0.012-0.004c0.17 0.066 0.324 0.164 0.452 0.29 0.127 0.127 0.224 0.275 0.289 0.439 0.071 0.182 0.106 0.376 0.104 0.571zM8.742 30.304c0-0.007 0-0.016 0-0.024 0-0.155-0.027-0.303-0.076-0.441l0.003 0.009c-0.087-0.256-0.278-0.457-0.522-0.554l-0.006-0.002c-0.126-0.047-0.271-0.075-0.423-0.075s-0.297 0.027-0.432 0.078l0.009-0.003c-0.251 0.099-0.443 0.299-0.528 0.55l-0.002 0.006c-0.097 0.298-0.097 0.616 0 0.913 0.087 0.256 0.279 0.457 0.524 0.552l0.006 0.002c0.273 0.097 0.573 0.097 0.846 0 0.124-0.048 0.234-0.121 0.324-0.214 0.092-0.1 0.162-0.216 0.205-0.341 0.052-0.147 0.076-0.301 0.073-0.456zM12.161 30.783l0.041 0.102c0.015-0.036 0.028-0.069 0.044-0.102 0.017-0.040 0.034-0.073 0.052-0.105l-0.002 0.005 0.978-1.694c0.019-0.030 0.037-0.048 0.056-0.053 0.020-0.006 0.043-0.009 0.066-0.009 0.005 0 0.010 0 0.015 0l-0.001-0h0.289v2.756h-0.342v-2.111c-0.001-0.014-0.001-0.031-0.001-0.048s0.001-0.033 0.001-0.050l-0 0.002-0.984 1.719c-0.013 0.026-0.033 0.048-0.057 0.062l-0.001 0c-0.023 0.014-0.052 0.022-0.082 0.022-0.001 0-0.002 0-0.002-0h-0.055c-0.030 0.001-0.060-0.007-0.084-0.022s-0.044-0.036-0.057-0.062l-0-0.001-1.013-1.73v2.213h-0.331v-2.751h0.289c0.004-0 0.009-0 0.014-0 0.024 0 0.046 0.003 0.068 0.010l-0.002-0c0.024 0.011 0.042 0.029 0.053 0.052l0 0.001 1 1.696c0.018 0.028 0.035 0.060 0.048 0.094l0.001 0.004zM15.843 30.646v1.032h-0.383v-2.751h0.854c0.010-0 0.021-0 0.033-0 0.158 0 0.311 0.022 0.456 0.063l-0.012-0.003c0.124 0.034 0.239 0.092 0.337 0.171 0.085 0.074 0.15 0.168 0.191 0.27 0.045 0.112 0.067 0.232 0.066 0.352 0.002 0.121-0.022 0.24-0.071 0.352-0.049 0.109-0.119 0.202-0.205 0.274l-0.001 0.001c-0.095 0.080-0.209 0.143-0.333 0.181l-0.007 0.002c-0.149 0.045-0.305 0.067-0.462 0.064l-0.463-0.007zM15.843 30.35h0.464c0.101 0.002 0.201-0.013 0.296-0.042 0.083-0.027 0.154-0.068 0.215-0.12l-0.001 0.001c0.056-0.049 0.1-0.11 0.129-0.178l0.001-0.003c0.029-0.066 0.046-0.144 0.046-0.225 0-0.003-0-0.005-0-0.008v0c0-0.008 0.001-0.018 0.001-0.028 0-0.071-0.015-0.138-0.041-0.199l0.001 0.003c-0.032-0.074-0.077-0.137-0.134-0.188l-0-0c-0.126-0.094-0.285-0.15-0.457-0.15-0.020 0-0.040 0.001-0.060 0.002l0.003-0h-0.464v1.134zM20.99 31.682h-0.302c-0.002 0-0.004 0-0.006 0-0.030 0-0.057-0.010-0.079-0.026l0 0c-0.021-0.017-0.038-0.038-0.049-0.063l-0-0.001-0.261-0.665h-1.307l-0.27 0.665c-0.011 0.025-0.027 0.046-0.047 0.062l-0 0c-0.022 0.017-0.051 0.028-0.082 0.028-0.002 0-0.003-0-0.005-0h-0.302l1.149-2.756h0.398l1.164 2.756zM19.095 30.658h1.079l-0.456-1.122c-0.030-0.071-0.060-0.157-0.083-0.246l-0.003-0.014-0.044 0.144c-0.015 0.049-0.029 0.088-0.045 0.126l0.003-0.009-0.452 1.12zM22.644 28.938c0.023 0.013 0.043 0.030 0.058 0.050l1.675 2.077v-2.139h0.342v2.756h-0.191c-0.001 0-0.003 0-0.005 0-0.027 0-0.052-0.006-0.074-0.017l0.001 0c-0.024-0.014-0.044-0.031-0.061-0.051l-0-0-1.674-2.075c0.002 0.031 0.002 0.063 0 0.095v2.049h-0.342v-2.757h0.203c0.024 0 0.047 0.004 0.068 0.013zM27.542 30.585v1.094h-0.383v-1.094l-1.059-1.66h0.342c0.002-0 0.005-0 0.008-0 0.028 0 0.054 0.009 0.075 0.024l-0-0c0.021 0.018 0.038 0.038 0.052 0.061l0.001 0.001 0.663 1.070c0.026 0.045 0.049 0.088 0.068 0.128s0.034 0.078 0.048 0.116l0.050-0.118c0.021-0.049 0.043-0.090 0.068-0.13l-0.002 0.004 0.653-1.078c0.014-0.022 0.031-0.042 0.050-0.059l0-0c0.020-0.017 0.047-0.027 0.076-0.027 0.002 0 0.004 0 0.006 0h0.347l-1.061 1.667zM11.972 24.3c0.167 0.020 0.335 0.037 0.506 0.051 2.583-1.102 4.769-2.903 6.283-5.181s2.291-4.931 2.232-7.627l-2.847-2.713c0.189 0.894 0.297 1.922 0.297 2.975 0 2.015-0.396 3.938-1.115 5.695l0.036-0.1c-1.091 2.732-2.957 5.121-5.392 6.901z"></path>
<path fill="#afb1b8" d="M10.955 24.174l0.077 0.015c2.601-1.773 4.585-4.248 5.693-7.106 0.627-1.565 0.991-3.379 0.991-5.277 0-1.296-0.17-2.553-0.488-3.749l0.023 0.102-4.055-3.863c1.27 2.397 2.015 5.24 2.015 8.257 0 0.702-0.040 1.394-0.119 2.074l0.008-0.083c-0.397 3.519-1.834 6.859-4.145 9.631zM24.708 14.728c-0.689 2.963-2.362 5.634-4.772 7.618-0.665 0.554-1.406 1.066-2.192 1.511l-0.075 0.039c2.040-0.578 3.805-1.556 5.286-2.852l-0.016 0.013c1.466-1.282 2.626-2.875 3.382-4.68l0.031-0.084-1.645-1.565z"></path>
<path fill="#afb1b8" d="M24.063 14.292l-2.342-2.231c-0.053 2.682-0.866 5.163-2.23 7.251l0.032-0.053c-1.394 2.17-3.374 3.945-5.731 5.139h0.012c0.526 0 1.050-0.030 1.572-0.089 2.251-0.884 4.151-2.238 5.651-3.951l0.014-0.017c1.454-1.661 2.513-3.705 3.006-5.96l0.016-0.089zM11.294 2.665l-2.794-2.665c-2.497 0.919-4.645 2.535-6.162 4.638s-2.334 4.591-2.341 7.141c0.010 2.819 1.005 5.553 2.829 7.772s4.373 3.794 7.244 4.477c2.562-2.974 4.062-6.649 4.282-10.491s-0.852-7.65-3.059-10.873zM30.517 13.882c-0.010-3.344-1.409-6.548-3.891-8.913s-5.845-3.697-9.355-3.707c-1.622-0.002-3.231 0.284-4.742 0.841l17.104 16.295c0.559-1.335 0.884-2.887 0.884-4.514 0-0 0-0.001 0-0.001v0z"></path>
</svg>
