<!-- Generated by IcoMoon.io -->
<svg version="1.1" xmlns="http://www.w3.org/2000/svg" width="20" height="32" viewBox="0 0 20 32">
<title>smartphone</title>
<path fill="#757575" d="M17.002 0h-14.003c-1.654 0-3.001 1.346-3.001 3.001v26.006c0 1.654 1.346 3.001 3.001 3.001h14.003c1.654 0 3.001-1.346 3.001-3.001v-26.006c0-1.654-1.346-3.001-3.001-3.001zM2.998 2.001h14.003c0.552 0 1 0.448 1 1v0 21.005h-16.004v-21.005c0-0.552 0.448-1 1-1v0zM17.002 30.007h-14.003c-0.552 0-1-0.448-1-1v0-3.001h16.004v3.001c0 0.552-0.448 1-1 1v0z"></path>
<path fill="#757575" d="M4.707 27.485c0.18 0.164 0.293 0.399 0.293 0.66s-0.113 0.497-0.292 0.66l-0.001 0.001c-0.186 0.17-0.435 0.275-0.708 0.275s-0.522-0.104-0.709-0.275l0.001 0.001c-0.18-0.164-0.293-0.399-0.293-0.66s0.113-0.497 0.292-0.66l0.001-0.001c0.186-0.17 0.435-0.275 0.708-0.275s0.522 0.104 0.709 0.275l-0.001-0.001z"></path>
</svg>
